<?xml version="1.0" encoding="utf-8"?>
<!-- Generator: Adobe Illustrator 19.2.1, SVG Export Plug-In . SVG Version: 6.00 Build 0)  -->
<svg version="1.1" id="layer" xmlns="http://www.w3.org/2000/svg" xmlns:xlink="http://www.w3.org/1999/xlink" x="0px" y="0px"
	 viewBox="0 0 652 652" style="enable-background:new 0 0 652 652;" xml:space="preserve">
<style type="text/css">
	.st0{fill:#005699;}
	.st1{fill:none;stroke:#005699;stroke-width:0.1777;}
</style>
<g id="Page-1">
	<g id="logo-aaas">
		<path id="Fill-5" class="st0" d="M122.7,189.5c15.9,15,55.9,134.8,65,162.1V189.5H122.7"/>
		<path id="Fill-6" class="st0" d="M145.2,351.4C136,323.5,101.4,205.1,83,189.5H20.9v161.9h1.3l60.1-157.8L32.1,351.4h1.6
			l54.8-147.1L42.9,351.4h2.1l49.6-134.3L54,351.3h1.9l25.7-55.1h-6.2l25-66.2l-18.8,66.2h5.6l-22.8,55.2H145.2"/>
		<path id="Fill-7" class="st0" d="M556.3,347.1c-1.6,0-3.9-0.2-6.2-0.9c-3.5-1-7.9-3.9-13.3-17.3c-7-17.4-21.8-55.9-30.6-79
			l-6.8-17.7c-1.9-4.9-2.7-6.3-4.3-6.3c-1.6,0-2.3,1.4-4.3,6.8l-36.5,99.6c-3.1,8.6-6.2,13.7-12.9,14.6c0,0-0.4,0-0.9,0.1
			c-0.9-0.1-1.9-0.3-2.9-0.7c-3.5-1-7.9-3.9-13.3-17.3c-7-17.4-21.8-56-30.6-79.1l-6.8-17.6c-1.9-4.9-2.7-6.3-4.3-6.3
			c-1.6,0-2.3,1.4-4.3,6.8L342,332.2c-3.1,8.6-6.2,13.7-12.9,14.6c0,0-0.4,0-0.9,0.1c-0.9-0.1-1.9-0.3-2.9-0.7
			c-3.5-1-7.9-3.9-13.3-17.3c-7-17.4-21.8-55.9-30.6-79l-6.8-17.7c-1.9-4.9-2.7-6.3-4.3-6.3c-1.6,0-2.3,1.4-4.3,6.8l-36.5,99.6
			c-3.1,8.6-6.2,13.7-12.9,14.6c0,0-4.6,0.3-4.6,0.3c-1.3,0-2.2,0.7-2.2,1.7c0,2.1,2.6,2.1,3.8,2.1l14.5-0.4l3.7-0.1l4.1,0.2
			l8.4,0.3c2.6,0,3.2-1.1,3.2-2.1c0-0.6-0.3-1.7-2.4-1.7h-1.6c-2.1,0-5.3-1-5.3-3.9c0-2.8,0.8-6.5,2.2-10.5c0,0,9.6-28.4,9.6-28.4
			c0.3-0.7,0.6-0.8,0.9-0.8h34.5c0.4,0,0.5,0.1,0.7,0.5c0,0,14.9,39.4,14.9,39.4c0.2,0.6,0.3,1.2,0.3,1.7c0,0.4-0.1,0.7-0.2,1
			c-0.2,0.4-0.5,0.6-0.6,0.6c-1.4,0.4-1.7,1.3-1.7,1.9c0,1.6,1.8,1.7,4.8,1.9l0.7,0c6,0.2,13.3,0.3,20.9,0.3c0.2,0,0.5,0,0.6,0
			l0.2,0c1.1,0,2.3,0,3.5,0c0.7,0,1.3-0.1,1.8-0.1l9-0.2l3.7-0.1l4.1,0.2l8.5,0.3c2.6,0,3.2-1.1,3.2-2.1c0-0.6-0.3-1.7-2.4-1.7H356
			c-2.1,0-5.3-1-5.3-3.9c0-2.8,0.8-6.5,2.2-10.5c0,0,9.6-28.4,9.6-28.4c0.3-0.7,0.6-0.8,0.9-0.8h34.5c0.4,0,0.5,0.1,0.7,0.5
			c0,0,14.9,39.4,14.9,39.4c0.2,0.6,0.3,1.2,0.3,1.7c0,0.4-0.1,0.7-0.2,1c-0.2,0.4-0.5,0.6-0.6,0.6c-1.4,0.4-1.7,1.3-1.7,1.9
			c0,1.6,1.8,1.7,4.8,1.9l0.7,0c6,0.2,13.3,0.3,20.9,0.3c0.2,0,0.5,0,0.6,0l0.2,0c1.1,0,2.3,0,3.5,0c0.7,0,1.3-0.1,1.8-0.1l9-0.2
			l3.7-0.1l4.1,0.2l8.4,0.3c2.6,0,3.2-1.1,3.2-2.1c0-0.6-0.3-1.7-2.4-1.7h-1.6c-2.1,0-5.3-1-5.3-3.9c0-2.8,0.8-6.5,2.2-10.5
			c0,0,9.6-28.4,9.6-28.4c0.3-0.7,0.6-0.8,0.9-0.8h34.5c0.4,0,0.5,0.1,0.7,0.5c0,0,14.9,39.4,14.9,39.4c0.2,0.6,0.3,1.2,0.3,1.7
			c0,0.4-0.1,0.7-0.2,1c-0.2,0.4-0.5,0.6-0.6,0.6c-1.4,0.4-1.7,1.3-1.7,1.9c0,1.6,1.8,1.7,4.8,1.9l0.7,0c7.2,0.2,16.1,0.3,25.3,0.3
			c2.7,0,4-0.7,4-2.1C558.7,347.6,557.9,347.1,556.3,347.1L556.3,347.1z M508.2,296.2h-30.3c0,0,0-0.1,0-0.1
			c0-0.1,14.2-43.3,14.2-43.3c0.2-0.6,0.3-0.9,0.5-1.1c0.1,0.2,0.3,0.5,0.5,1.1C492.9,252.8,508.2,296.1,508.2,296.2
			C508.2,296.1,508.2,296.1,508.2,296.2C508.2,296.1,508.2,296.2,508.2,296.2L508.2,296.2z M395.8,296.2h-30.3c0,0,0-0.1,0-0.1
			c0-0.1,14.2-43.3,14.2-43.3c0.2-0.6,0.3-0.9,0.5-1.1c0.1,0.2,0.3,0.5,0.5,1.1C380.5,252.8,395.8,296.1,395.8,296.2
			C395.8,296.1,395.7,296.1,395.8,296.2C395.7,296.1,395.8,296.2,395.8,296.2L395.8,296.2z M283.4,296.2H253c0,0,0-0.1,0-0.1
			c0-0.1,14.1-43.3,14.1-43.3c0.2-0.6,0.3-0.9,0.5-1.1c0.1,0.2,0.3,0.5,0.5,1.1C268.1,252.8,283.3,296.1,283.4,296.2
			C283.3,296.1,283.3,296.1,283.4,296.2C283.3,296.1,283.4,296.2,283.4,296.2L283.4,296.2z"/>
		<path id="Fill-8" class="st0" d="M561.3,347.2c-2.2-1.1-2.4-1.8-2.4-6.1c0-8,0.6-14.4,0.8-17c0.2-1.8,0.5-2.6,1.3-2.6
			c1,0,1.1,0.5,1.1,1.8c0,1.4,0,3.7,0.5,5.9c2.4,11.9,13,16.4,23.8,16.4c15.4,0,23-11.1,23-21.3c0-11.1-4.7-17.5-18.5-28.9l-7.2-5.9
			c-17-13.9-20.9-23.9-20.9-34.8c0-17.2,12.8-28.9,33.2-28.9c6.3,0,10.9,0.6,14.9,1.6c3.1,0.6,4.3,0.8,5.6,0.8
			c1.3,0,1.6,0.3,1.6,1.1c0,0.8-0.6,6.1-0.6,17c0,2.6-0.3,3.7-1.1,3.7c-1,0-1.1-0.8-1.3-2.1c-0.2-1.9-1.1-6.3-2.1-8
			c-1-1.8-5.3-8.5-20.1-8.5c-11.1,0-19.8,6.9-19.8,18.6c0,9.1,4.5,14.6,19.6,26.9l4.5,3.5c19,14.9,23.5,24.9,23.5,37.7
			c0,6.6-2.6,18.8-13.7,26.6c-6.9,4.8-15.6,6.7-24.2,6.7C575.2,351.5,567.8,350.4,561.3,347.2L561.3,347.2z"/>
		<path id="Stroke-9" class="st1" d="M561.3,347.2c-2.2-1.1-2.4-1.8-2.4-6.1c0-8,0.6-14.4,0.8-17c0.2-1.8,0.5-2.6,1.3-2.6
			c1,0,1.1,0.5,1.1,1.8c0,1.4,0,3.7,0.5,5.9c2.4,11.9,13,16.4,23.8,16.4c15.4,0,23-11.1,23-21.3c0-11.1-4.7-17.5-18.5-28.9l-7.2-5.9
			c-17-13.9-20.9-23.9-20.9-34.8c0-17.2,12.8-28.9,33.2-28.9c6.3,0,10.9,0.6,14.9,1.6c3.1,0.6,4.3,0.8,5.6,0.8
			c1.3,0,1.6,0.3,1.6,1.1c0,0.8-0.6,6.1-0.6,17c0,2.6-0.3,3.7-1.1,3.7c-1,0-1.1-0.8-1.3-2.1c-0.2-1.9-1.1-6.3-2.1-8
			c-1-1.8-5.3-8.5-20.1-8.5c-11.1,0-19.8,6.9-19.8,18.6c0,9.1,4.5,14.6,19.6,26.9l4.5,3.5c19,14.9,23.5,24.9,23.5,37.7
			c0,6.6-2.6,18.8-13.7,26.6c-6.9,4.8-15.6,6.7-24.2,6.7C575.2,351.5,567.8,350.4,561.3,347.2L561.3,347.2z"/>
	</g>
</g>
<g>
	<path class="st0" d="M46.6,406.9l8-22.8h3.8l8,22.8h-3.9l-1.9-5.4h-8.5l-1.9,5.4H46.6z M53.2,398.1h6.3l-3-9.2L53.2,398.1z
		 M73.8,406.9v-22.8h5l6,18l5.8-18h5v22.8H92v-17c-0.3,1.6-0.8,3-1.3,4.6l-4.4,12.3H83l-4.4-12.3c-0.5-1.6-0.9-2.5-1.4-4.8v17h-3.5
		C73.8,406.7,73.8,406.9,73.8,406.9z M105.2,406.9v-22.8h14.4v3.5h-10.7v5.7h7.9v3.3h-7.9v6.5h11.3v3.5h-15.1V406.9z M128.2,406.9
		v-22.8h8c5.3,0,8.5,2.2,8.5,6.8c0,3.7-1.9,5.7-5,6.5l5.3,9.4H141l-5-8.9H132v8.9H128.2L128.2,406.9z M132,394.4h4.1
		c3.1,0,4.9-0.8,4.9-3.5c0-2.5-1.7-3.3-4.9-3.3H132C132,387.6,132,394.4,132,394.4z M153.7,406.9v-22.8h3.8v22.8H153.7z
		 M165.9,395.4c0-7.6,4.2-11.8,9.9-11.8c5.2,0,7.7,2.9,8.6,7l-3.6,1.1c-0.8-3-2.2-4.6-5.2-4.6c-3.8,0-6,3-6,8.1
		c0,5.4,2.2,8.4,6.1,8.4c3,0,4.6-1.4,5.3-4.9l3.6,0.8c-1.1,4.5-3.9,7.5-9.1,7.5C170,407.3,165.9,403.2,165.9,395.4z M191.2,406.9
		l8-22.8h3.8l8,22.8h-3.9l-1.9-5.4h-8.5l-1.9,5.4H191.2L191.2,406.9z M197.8,398.1h6.3l-3-9.2L197.8,398.1z M218.4,406.9v-22.8h3.9
		l10.7,16.2v-16.2h3.5v22.8H233l-11-16.5v16.5H218.4z M255.9,406.9l8-22.8h3.8l8,22.8h-3.9l-1.9-5.4h-8.5l-1.9,5.4
		C259.5,406.9,255.9,406.9,255.9,406.9z M262.4,398.1h6.3l-3-9.2L262.4,398.1z M281.8,401.4l3-1.6c1.3,2.7,3.5,4,6.1,4
		c2.7,0,4.6-1,4.6-3c0-1.9-1.4-2.9-5-4c-4.4-1.3-7.9-2.5-7.9-6.8c0-3.8,3.1-6.4,7.7-6.4c4.4,0,7.1,2.2,8.3,4.9l-2.8,1.9
		c-1.3-2.2-3.3-3.3-5.7-3.3c-2.5,0-3.9,1-3.9,2.5c0,2.1,1.6,2.9,5.3,4c4.2,1.3,7.7,2.7,7.7,7c0,3.7-3.1,6.7-8.5,6.7
		C286.4,407.3,283.3,404.9,281.8,401.4L281.8,401.4z M306.5,401.4l3-1.6c1.3,2.7,3.5,4,6.1,4c2.7,0,4.6-1,4.6-3c0-1.9-1.4-2.9-5-4
		c-4.4-1.3-7.9-2.5-7.9-6.8c0-3.8,3.1-6.4,7.7-6.4c4.4,0,7.1,2.2,8.3,4.9l-2.8,1.9c-1.3-2.2-3.3-3.3-5.7-3.3c-2.5,0-3.9,1-3.9,2.5
		c0,2.1,1.6,2.9,5.3,4c4.2,1.3,7.7,2.7,7.7,7c0,3.7-3.1,6.7-8.5,6.7C311,407.3,307.9,404.9,306.5,401.4z M331.3,395.4
		c0-7.6,4.4-11.8,10.2-11.8c5.7,0,10.1,4.1,10.1,11.8c0,7.6-4.4,11.8-10.1,11.8C335.7,407.3,331.3,403,331.3,395.4z M347.8,395.4
		c0-5.4-2.5-8.3-6.3-8.3c-3.8,0-6.3,2.9-6.3,8.3c0,5.4,2.5,8.3,6.3,8.3C345.3,403.8,347.8,400.8,347.8,395.4z M358.8,395.4
		c0-7.6,4.2-11.8,9.9-11.8c5.2,0,7.7,2.9,8.6,7l-3.6,1.1c-0.8-3-2.2-4.6-5.2-4.6c-3.8,0-6,3-6,8.1c0,5.4,2.2,8.4,6.1,8.4
		c3,0,4.6-1.4,5.3-4.9l3.6,0.8c-1.1,4.5-3.9,7.5-9.1,7.5C362.9,407.3,358.8,403.2,358.8,395.4z M386.1,406.9v-22.8h3.8v22.8H386.1z
		 M397.7,406.9l8-22.8h3.8l8,22.8h-3.9l-1.9-5.4h-8.5l-1.9,5.4H397.7L397.7,406.9z M404.2,398.1h6.3l-3-9.2
		C407.5,388.9,404.2,398.1,404.2,398.1z M430.1,406.9v-19.1h-6.9v-3.5h17.6v3.5h-6.9v19.1H430.1z M448.6,406.9v-22.8h3.8v22.8H448.6
		z M460.9,395.4c0-7.6,4.4-11.8,10.2-11.8c5.7,0,10.1,4.1,10.1,11.8c0,7.6-4.4,11.8-10.1,11.8C465.3,407.3,460.9,403,460.9,395.4z
		 M477.4,395.4c0-5.4-2.5-8.3-6.3-8.3s-6.3,2.9-6.3,8.3c0,5.4,2.5,8.3,6.3,8.3C474.8,403.8,477.4,400.8,477.4,395.4z M489.5,406.9
		v-22.8h3.9l10.7,16.2v-16.2h3.5v22.8h-3.5l-11-16.5v16.5H489.5z M528.6,406.9v-22.8h14.1v3.5h-10.4v6h7.5v3.3h-7.5v9.7h-3.8
		L528.6,406.9z M549.3,395.4c0-7.6,4.4-11.8,10.2-11.8c5.7,0,10.1,4.1,10.1,11.8c0,7.6-4.4,11.8-10.1,11.8
		C553.8,407.3,549.3,403,549.3,395.4z M565.8,395.4c0-5.4-2.5-8.3-6.3-8.3c-3.8,0-6.3,2.9-6.3,8.3c0,5.4,2.5,8.3,6.3,8.3
		C563.3,403.8,565.8,400.8,565.8,395.4z M577.9,406.9v-22.8h8c5.3,0,8.5,2.2,8.5,6.8c0,3.7-1.9,5.7-5,6.5l5.3,9.4h-4.1l-5-8.9h-3.9
		v8.9H577.9L577.9,406.9z M581.5,394.4h4.1c3.1,0,4.9-0.8,4.9-3.5c0-2.5-1.7-3.3-4.9-3.3h-4.1C581.5,387.6,581.5,394.4,581.5,394.4z
		"/>
	<g>
		<path class="st0" d="M27.6,451.3v-19.1h-6.9v-3.7h17.6v3.5h-6.9v19.1h-3.8V451.3z M46,451.3v-22.8h3.8v9.1h10.2v-9.1h3.8v22.8
			h-3.8v-10H49.7v10H46z M73.1,451.3v-22.8h14.4v3.5H76.9v5.7h7.9v3.3h-7.9v6.5h11.3v3.5H73.1L73.1,451.3z M106.3,451.3l8-22.8h3.8
			l8,22.8h-3.9l-1.9-5.4h-8.5l-1.9,5.4H106.3z M112.7,442.5h6.3l-3-9.2L112.7,442.5z M133.4,451.3v-22.8h6.4
			c7.1,0,11.6,3.3,11.6,11.3c0,8.1-4.7,11.5-11.6,11.5H133.4z M137.2,447.9h3c5.2,0,7.5-2.2,7.5-8c0-5.4-2.4-7.6-7.5-7.6h-2.8v15.6
			H137.2L137.2,447.9z M165.8,451.4l-7.9-22.8h3.9l5.8,17.7l5.8-17.7h3.6l-7.9,22.8H165.8z M182.9,451.3l8-22.8h3.8l8,22.8h-3.9
			l-1.9-5.4h-8.5l-1.9,5.4H182.9z M189.3,442.5h6.3l-3-9.2L189.3,442.5L189.3,442.5z M210.1,451.3v-22.8h3.9l10.7,16.2v-16.2h3.5
			v22.8h-3.5l-11-16.5v16.5L210.1,451.3z M236.3,439.8c0-7.6,4.2-11.8,9.9-11.8c5.2,0,7.7,2.9,8.6,7l-3.6,1.1
			c-0.8-3-2.2-4.6-5.2-4.6c-3.8,0-6,3-6,8.1c0,5.4,2.2,8.4,6.1,8.4c3,0,4.6-1.4,5.3-4.9l3.6,0.8c-1.1,4.5-3.9,7.5-9.1,7.5
			C240.4,451.7,236.3,447.7,236.3,439.8L236.3,439.8z M263.5,451.3v-22.8h14.4v3.5h-10.7v5.7h7.9v3.3h-7.9v6.5h11.3v3.5h-15.1
			L263.5,451.3z M286.4,451.3v-22.8h5l6,18l5.8-18h5v22.8h-3.6v-17c-0.3,1.6-0.8,3-1.4,4.6l-4.4,12.3h-3.3l-4.4-12.3
			c-0.5-1.6-0.9-2.5-1.4-4.8v17h-3.3V451.3z M317.8,451.3v-22.8h14.4v3.5h-10.7v5.7h7.9v3.3h-7.9v6.5h11.3v3.5h-15.1V451.3z
			 M340.9,451.3v-22.8h3.9l10.7,16.2v-16.2h3.5v22.8h-3.5l-11-16.5v16.5L340.9,451.3z M373.4,451.3v-19.1h-6.9v-3.7h17.6v3.5h-6.9
			v19.1h-3.8L373.4,451.3z M402.5,440c0-7.6,4.4-11.8,10.2-11.8c5.7,0,10.1,4.1,10.1,11.8c0,7.6-4.4,11.8-10.1,11.8
			C407,451.7,402.4,447.6,402.5,440L402.5,440z M418.9,440c0-5.4-2.5-8.3-6.3-8.3c-3.8,0-6.3,2.9-6.3,8.3c0,5.4,2.5,8.3,6.3,8.3
			C416.4,448.2,418.9,445.2,418.9,440L418.9,440z M431,451.3v-22.8h14.1v3.5h-10.4v6h7.5v3.3h-7.5v9.7H431V451.3z M463.4,446l3-1.6
			c1.3,2.7,3.5,4,6.1,4s4.6-1,4.6-3c0-1.9-1.4-2.9-5-4c-4.4-1.3-7.9-2.5-7.9-6.8c0-3.8,3.1-6.4,7.7-6.4c4.4,0,7.1,2.2,8.3,4.9
			l-2.8,1.9c-1.3-2.2-3.3-3.3-5.7-3.3c-2.5,0-3.9,1-3.9,2.5c0,2.1,1.6,2.9,5.3,4c4.2,1.3,7.7,2.7,7.7,7c0,3.7-3.1,6.7-8.5,6.7
			C468.1,451.7,465,449.3,463.4,446L463.4,446z M488.2,439.8c0-7.6,4.2-11.8,9.9-11.8c5.2,0,7.7,2.9,8.6,7l-3.6,1.1
			c-0.8-3-2.2-4.6-5.2-4.6c-3.8,0-6,3-6,8.1c0,5.4,2.2,8.4,6.1,8.4c3,0,4.6-1.4,5.3-4.9l3.6,0.8c-1.1,4.5-3.9,7.5-9.1,7.5
			C492.3,451.7,488.2,447.7,488.2,439.8L488.2,439.8z M515.5,451.3v-22.8h3.8v22.8H515.5z M528.9,451.3v-22.8h14.4v3.5h-10.7v5.7
			h7.9v3.3h-7.9v6.5h11.3v3.5h-15.1L528.9,451.3z M552,451.3v-22.8h3.9l10.7,16.2v-16.2h3.5v22.8h-3.5l-11-16.5v16.5L552,451.3z
			 M578.3,439.8c0-7.6,4.2-11.8,9.9-11.8c5.2,0,7.7,2.9,8.6,7l-3.6,1.1c-0.8-3-2.2-4.6-5.2-4.6c-3.8,0-6,3-6,8.1
			c0,5.4,2.2,8.4,6.1,8.4c3,0,4.6-1.4,5.3-4.9l3.6,0.8c-1.1,4.5-3.9,7.5-9.1,7.5C582.4,451.7,578.3,447.7,578.3,439.8L578.3,439.8z
			 M605.4,451.3v-22.8h14.4v3.5h-10.7v5.7h7.9v3.3h-7.9v6.5h11.3v3.5h-15.1L605.4,451.3z"/>
	</g>
</g>
</svg>
