<?xml version="1.0" encoding="UTF-8"?><svg id="Layer_2" xmlns="http://www.w3.org/2000/svg" viewBox="0 0 117.83 40.58"><defs><style>.cls-1{fill:#001f83;}</style></defs><g id="Layer_1-2"><g><g><path class="cls-1" d="m21.8,31.31c4.07-.17,6.32-2.38,6.32-5.61s-2.4-5.79-5.82-7.48l-11.78-5.8c-2.27-1.13-3.52-2.48-3.78-4.12-4.07.17-6.32,2.38-6.32,5.61s2.4,5.79,5.82,7.48l11.78,5.8c2.27,1.13,3.52,2.48,3.78,4.12Z"/><path class="cls-1" d="m2.84,7.46C5.8,3.31,9.14,0,14.54,0c4.23,0,9.82,1.45,14.01,5.02l-5.75,7.42C18.07,7.96,8.11,5.1,2.84,7.46Z"/><path class="cls-1" d="m25.71,32.15c-2.97,4.15-6.3,7.46-11.7,7.46-4.23,0-9.82-1.45-14.01-5.02l5.75-7.42c4.73,4.49,14.69,7.34,19.96,4.98Z"/></g><g><path class="cls-1" d="m69.89,13.38c-2.39,0-5.76.78-7.71,1.95v4.78c1.66-1.37,4.54-2.2,6.88-2.2,2.15,0,4.2.63,4.2,2.34v.82l-3.95.4c-5.13.59-8.54,2.2-8.54,6.25,0,3.71,3.03,5.57,6.59,5.57,2.73,0,4.93-1.27,6.25-3.22l.44,2.59h3.95v-11.86c0-4.98-3.37-7.42-8.1-7.42Zm-1.03,16.21c-1.66,0-3.08-.73-3.08-2.29,0-1.41,1.51-2.06,3.51-2.35l3.95-.62v1.07c0,2.73-2,4.2-4.39,4.2Z"/><path class="cls-1" d="m52.32,17.94c-3.71-1.03-6.25-1.76-6.25-3.9,0-2,1.81-3.07,4.39-3.12,2.64,0,4.88.92,7.32,2.38v-5.22c-2.11-1.13-4.44-1.75-7.36-1.81-5.37,0-9.63,2.93-9.63,8.15,0,4.2,2.68,6.1,7.13,7.27,3.56.93,5.86,1.66,5.86,3.86s-2.1,3.14-4.49,3.14c-2.85,0-6-1.14-8.45-2.9v5.52c1.75,1.12,5.02,1.94,8.49,2,5.27.05,9.47-2.39,9.71-7.66.2-4.25-2.34-6.49-6.74-7.71Z"/><path class="cls-1" d="m91.93,28.72l-5.27-.05c-1.32,0-2.05-.44-2-1.27.05-.47.37-.77.83-.95,1.08.41,2.32.61,3.66.61,4.64,0,8.15-2.73,8.15-6.83,0-1.89-.73-3.53-2.01-4.74h3.28v-4.44c-2.74-.31-4.81,1.06-5.71,2.94-1.09-.43-2.33-.65-3.67-.65-4.59,0-8.15,2.73-8.15,6.83,0,1.82.59,3.39,1.72,4.56-1.48.85-2.31,2.13-2.31,3.74,0,1.41.66,2.51,1.64,3.25-1.49.61-2.47,1.92-2.47,3.68,0,3.86,4.39,5.17,9.28,5.17,5.66,0,10.06-1.95,10.06-6.49,0-3.71-2.93-5.32-7.03-5.37Zm-2.78-11.33c2.05,0,3.42,1.17,3.42,2.78,0,1.76-1.51,2.83-3.42,2.83-2.05,0-3.32-1.22-3.32-2.83,0-1.76,1.46-2.78,3.32-2.78Zm.15,19.14c-2.64,0-4.88-.34-4.88-1.9,0-.77.55-1.32,1.34-1.6l5.4.04c1.86.05,3.22.24,3.22,1.32,0,1.61-2.73,2.15-5.08,2.15Z"/><path class="cls-1" d="m108.96,13.33c-5.66,0-9.71,4.34-9.71,10.11s4.2,9.91,10.2,9.91c2.49,0,5.52-.59,7.47-1.71v-4.54c-1.61,1.27-4.15,2-6.54,2-3.32,0-5.26-1.41-5.86-4.15h13.18c.59-4.88-.67-11.62-8.74-11.62Zm-4.53,8.25c.4-2.44,1.93-3.86,4.34-3.86s3.76,1.61,3.81,3.86h-8.14Z"/></g></g></g></svg>